<?xml version="1.0" encoding="UTF-8" standalone="no"?>
<!-- Created with Inkscape (http://www.inkscape.org/) -->

<svg
   width="115.51051mm"
   height="45.344292mm"
   viewBox="0 0 115.51051 45.344292"
   version="1.1"
   id="svg5"
   inkscape:version="1.1.2 (b8e25be833, 2022-02-05)"
   sodipodi:docname="logo.svg"
   xmlns:inkscape="http://www.inkscape.org/namespaces/inkscape"
   xmlns:sodipodi="http://sodipodi.sourceforge.net/DTD/sodipodi-0.dtd"
   xmlns:xlink="http://www.w3.org/1999/xlink"
   xmlns="http://www.w3.org/2000/svg"
   xmlns:svg="http://www.w3.org/2000/svg">
  <sodipodi:namedview
     id="namedview7"
     pagecolor="#ffffff"
     bordercolor="#666666"
     borderopacity="1.0"
     inkscape:pageshadow="2"
     inkscape:pageopacity="0.0"
     inkscape:pagecheckerboard="0"
     inkscape:document-units="mm"
     showgrid="false"
     inkscape:zoom="3.1108586"
     inkscape:cx="290.43429"
     inkscape:cy="79.077847"
     inkscape:window-width="3840"
     inkscape:window-height="2054"
     inkscape:window-x="-11"
     inkscape:window-y="-11"
     inkscape:window-maximized="1"
     inkscape:current-layer="text45" />
  <defs
     id="defs2">
    <style
       id="style9">.cls-1{fill:url(#New_Gradient_Swatch_copy_9);}.cls-2{fill:url(#New_Gradient_Swatch_copy_9-2);}.cls-3{fill:url(#New_Gradient_Swatch_copy_9-3);}.cls-4{fill:url(#New_Gradient_Swatch_copy_9-4);}.cls-5{fill:url(#New_Gradient_Swatch_copy_9-5);}.cls-6{fill:url(#New_Gradient_Swatch_copy_9-6);}.cls-7{fill:url(#New_Gradient_Swatch_copy_9-7);}.cls-8{fill:url(#New_Gradient_Swatch_copy_9-8);}.cls-9{font-size:90.47px;fill:#323232;font-family:SourceSansPro-Bold, Source Sans Pro;font-weight:700;}.cls-10,.cls-11{fill:none;stroke-linecap:round;stroke-linejoin:round;stroke-width:9px;}.cls-10{stroke:url(#New_Gradient_Swatch_copy_9-9);}.cls-11{stroke:url(#New_Gradient_Swatch_copy_9-10);}</style>
    <linearGradient
       id="New_Gradient_Swatch_copy_9"
       x1="11.61"
       y1="63.18"
       x2="77.489998"
       y2="141.82001"
       gradientUnits="userSpaceOnUse">
      <stop
         offset="0"
         stop-color="#04f5ed"
         id="stop11" />
      <stop
         offset="1"
         stop-color="#00f7a7"
         id="stop13" />
    </linearGradient>
    <linearGradient
       id="New_Gradient_Swatch_copy_9-2"
       x1="-12.82"
       y1="83.650002"
       x2="53.049999"
       y2="162.28999"
       xlink:href="#New_Gradient_Swatch_copy_9" />
    <linearGradient
       id="New_Gradient_Swatch_copy_9-3"
       x1="7.1300001"
       y1="66.940002"
       x2="73"
       y2="145.58"
       xlink:href="#New_Gradient_Swatch_copy_9" />
    <linearGradient
       id="New_Gradient_Swatch_copy_9-4"
       x1="20.74"
       y1="55.529999"
       x2="86.620003"
       y2="134.17"
       xlink:href="#New_Gradient_Swatch_copy_9" />
    <linearGradient
       id="New_Gradient_Swatch_copy_9-5"
       x1="-3.27"
       y1="75.650002"
       x2="62.599998"
       y2="154.28999"
       xlink:href="#New_Gradient_Swatch_copy_9" />
    <linearGradient
       id="New_Gradient_Swatch_copy_9-6"
       x1="19.469999"
       y1="56.599998"
       x2="85.339996"
       y2="135.24001"
       xlink:href="#New_Gradient_Swatch_copy_9" />
    <linearGradient
       id="New_Gradient_Swatch_copy_9-7"
       x1="39.25"
       y1="40.029999"
       x2="105.13"
       y2="118.67"
       xlink:href="#New_Gradient_Swatch_copy_9" />
    <linearGradient
       id="New_Gradient_Swatch_copy_9-8"
       x1="26.34"
       y1="50.84"
       x2="92.209999"
       y2="129.48"
       xlink:href="#New_Gradient_Swatch_copy_9" />
    <linearGradient
       id="New_Gradient_Swatch_copy_9-9"
       x1="110.27"
       y1="25.27"
       x2="160.8"
       y2="25.27"
       xlink:href="#New_Gradient_Swatch_copy_9" />
    <linearGradient
       id="New_Gradient_Swatch_copy_9-10"
       x1="112.43"
       y1="36.07"
       x2="138.94"
       y2="36.07"
       xlink:href="#New_Gradient_Swatch_copy_9" />
    <linearGradient
       inkscape:collect="always"
       xlink:href="#New_Gradient_Swatch_copy_9"
       id="linearGradient80"
       gradientUnits="userSpaceOnUse"
       x1="11.61"
       y1="63.18"
       x2="77.489998"
       y2="141.82001" />
  </defs>
  <g
     inkscape:label="Layer 1"
     inkscape:groupmode="layer"
     id="layer1"
     transform="translate(2.3016484,-146.07012)">
    <g
       id="g78"
       transform="matrix(0.26458333,0,0,0.26458333,-2.3016484,146.07541)">
      <path
         class="cls-1"
         d="m 53.94,108.7 a 4.19,4.19 0 1 0 -4.19,4.2 4.2,4.2 0 0 0 4.19,-4.2 z"
         id="path29"
         style="fill:url(#linearGradient80)" />
      <path
         class="cls-2"
         d="m 25.08,133.09 a 4.19,4.19 0 1 0 -4.19,-4.19 4.2,4.2 0 0 0 4.19,4.19 z"
         id="path31"
         style="fill:url(#New_Gradient_Swatch_copy_9-2)" />
      <path
         class="cls-3"
         d="m 29.52,88.67 a 4.19,4.19 0 1 0 -4.19,4.19 4.2,4.2 0 0 0 4.19,-4.19 z"
         id="path33"
         style="fill:url(#New_Gradient_Swatch_copy_9-3)" />
      <path
         class="cls-4"
         d="m 56.76,150 -5.24,-5.23 a 9.48,9.48 0 0 1 -4.15,1 9.66,9.66 0 1 1 8.18,-4.6 l 3.45,3.4 h 47.89 l 0.54,-0.29 2.44,-21 H 82.24 a 9.61,9.61 0 1 1 0,-5.42 h 28.26 l 2.11,-18.12 h -16.4 a 9.61,9.61 0 1 1 0,-5.42 h 17 l 2.47,-21.17 H 63.22 l -3.28,3.28 a 9.67,9.67 0 1 1 -3.7,-4 L 61,67.71 h 55.37 L 116.45,67.03 58.21,46.85 17.59,60.93 v 14.71 l 4.13,4.13 a 9.41,9.41 0 0 1 3.61,-0.71 9.63,9.63 0 1 1 -7.88,4.11 L 12.17,77.89 V 62.81 L 0,67 4.56,106 h 36 a 9.62,9.62 0 1 1 0,5.43 H 5.19 L 9,144.28 12.17,146 v -7 L 17,134.1 a 9.7,9.7 0 1 1 4.12,3.55 l -3.54,3.54 V 149 L 58.2,171.36 97,150 Z"
         id="path35"
         style="fill:url(#New_Gradient_Swatch_copy_9-4)" />
      <path
         class="cls-5"
         d="m 43.18,136.1 a 4.19,4.19 0 1 0 4.19,-4.19 4.2,4.2 0 0 0 -4.19,4.19 z"
         id="path37"
         style="fill:url(#New_Gradient_Swatch_copy_9-5)" />
      <path
         class="cls-6"
         d="m 68.83,120.53 a 4.2,4.2 0 1 0 4.2,-4.19 4.2,4.2 0 0 0 -4.2,4.19 z"
         id="path39"
         style="fill:url(#New_Gradient_Swatch_copy_9-6)" />
      <path
         class="cls-7"
         d="M 82.8,97 A 4.19,4.19 0 1 0 87,92.82 4.2,4.2 0 0 0 82.8,97 Z"
         id="path41"
         style="fill:url(#New_Gradient_Swatch_copy_9-7)" />
      <path
         class="cls-8"
         d="m 47.15,80.69 a 4.19,4.19 0 1 0 4.19,-4.19 4.2,4.2 0 0 0 -4.19,4.19 z"
         id="path43"
         style="fill:url(#New_Gradient_Swatch_copy_9-8)" />
      <g
         aria-label="Emit IT"
         transform="translate(156.48,149.99)"
         id="text45"
         class="cls-9"
         style="font-weight:700;font-size:90.47px;font-family:SourceSansPro-Bold, 'Source Sans Pro';fill:#323232">
        <path
           d="M 6.9661901,0 V -58.986441 H 43.877951 v 11.21828 H 20.26528 v 11.851571 h 20.084341 v 11.12781 H 20.26528 v 13.5705 H 44.782651 V 0 Z"
           id="path112" />
        <path
           d="m 55.458141,0 v -44.873121 h 10.8564 l 0.9047,5.79008 h 0.36188 q 2.80457,-2.80457 5.97102,-4.79491 3.16645,-2.08081 7.59948,-2.08081 4.79491,0 7.68995,1.99034 2.985511,1.89987 4.704441,5.51867 2.98551,-3.07598 6.3329,-5.24726 3.347388,-2.26175 7.780418,-2.26175 7.2376,0 10.58499,4.88538 3.43786,4.794911 3.43786,13.208621 V 0 h -13.29909 v -26.14583 q 0,-4.88538 -1.35705,-6.69478 -1.26658,-1.8094 -4.16162,-1.8094 -3.347388,0 -7.689948,4.34256 V 0 H 81.875381 v -26.14583 q 0,-4.88538 -1.35705,-6.69478 -1.26658,-1.8094 -4.16162,-1.8094 -3.34739,0 -7.59948,4.34256 V 0 Z"
           id="path114" />
        <path
           d="m 132.99096,0 v -44.873121 h 13.29909 V 0 Z m 6.60431,-51.477431 q -3.34739,0 -5.4282,-1.89987 -2.08081,-1.89987 -2.08081,-5.06632 0,-3.16645 2.08081,-5.06632 2.08081,-1.89987 5.4282,-1.89987 3.34739,0 5.4282,1.89987 2.08081,1.89987 2.08081,5.06632 0,3.16645 -2.08081,5.06632 -2.08081,1.89987 -5.4282,1.89987 z"
           id="path116" />
        <path
           d="m 175.24037,1.08564 q -8.32324,0 -11.94204,-4.7949101 Q 159.77,-8.5041801 159.77,-16.2846 v -18.18447 h -6.15196 v -9.861231 l 6.87572,-0.54282 1.53799,-11.94204 h 11.03734 v 11.94204 h 10.76593 v 10.404051 h -10.76593 v 18.00353 q 0,3.79974 1.53799,5.51867 1.62846,1.6284599 4.25209,1.6284599 1.08564,0 2.17128,-0.27141 1.17611,-0.27141 2.08081,-0.6332899 l 2.08081,9.68028999 Q 183.47314,0 180.93998,0.54282001 178.49729,1.08564 175.24037,1.08564 Z"
           id="path118" />
        <path
           d="m 211.79027,0 v -58.986441 h 13.29909 V 0 Z"
           id="path120" />
        <path
           d="m 250.51148,0 v -47.768161 h -16.19413 v -11.21828 h 45.77782 v 11.21828 H 263.90104 V 0 Z"
           id="path122" />
      </g>
      <path
         style="color:#000000;fill:url(#New_Gradient_Swatch_copy_9-9);stroke-linecap:round;stroke-linejoin:round;-inkscape-stroke:none"
         d="M 126.48633,-0.01953125 C 118.95432,-0.02749679 113.34766,1.890625 113.34766,1.890625 A 4.5,4.5 0 0 0 110.5,7.5820312 a 4.5,4.5 0 0 0 5.69141,2.8476568 c 0,0 17.45828,-5.606169 28.62695,5.5625 11.17106,11.171062 5.55273,28.582031 5.55273,28.582031 a 4.5,4.5 0 0 0 2.8418,5.693359 4.5,4.5 0 0 0 5.69531,-2.841797 c 0,0 7.68235,-22.387964 -7.72656,-37.7968747 -7.70565,-7.7056525 -17.1633,-9.64047201 -24.69531,-9.64843755 z"
         id="path47" />
      <path
         style="color:#000000;fill:url(#New_Gradient_Swatch_copy_9-10);stroke-linecap:round;stroke-linejoin:round;-inkscape-stroke:none"
         d="m 121.91406,22.779297 c -3.68608,-0.0066 -6.40625,0.951172 -6.40625,0.951172 a 4.5,4.5 0 0 0 -2.84765,5.693359 4.5,4.5 0 0 0 5.69336,2.845703 c 0,0 5.91585,-1.765785 9.39453,1.712891 3.48057,3.48057 1.7207,9.398437 1.7207,9.398437 a 4.5,4.5 0 0 0 2.85352,5.689453 4.5,4.5 0 0 0 5.6875,-2.851562 c 0,0 3.82098,-10.882144 -3.89844,-18.601563 -3.86066,-3.860656 -8.51118,-4.831282 -12.19727,-4.83789 z"
         id="path49" />
    </g>
  </g>
</svg>
